<svg width="206" height="176" viewBox="0 0 206 176" fill="none" xmlns="http://www.w3.org/2000/svg">
<path fill-rule="evenodd" clip-rule="evenodd" d="M0 90.0689L7.74646 63.4356L46.8764 46.8754H99.9525L92.0619 66.1058L97.4709 64.2692C106.345 43.7362 114.266 22.5824 119.985 0C114.873 24.9313 112.798 45.2733 111.64 64.2431L111.622 64.5384C119.876 66.5791 128.811 68.1248 138.292 69.2711L139.126 66.9612C143.015 56.1368 146.462 45.1647 149.328 34.0277L149.363 33.8974L149.63 33.9582L149.603 34.0928C147.213 45.473 145.247 56.927 143.757 68.4635L143.578 69.8659C154.313 70.9775 165.69 71.6244 177.54 71.9327C166.066 72.3799 154.588 72.94 143.098 73.8128C142.713 77.143 142.359 80.4776 142.045 83.8166C141.59 88.6535 141.206 93.499 140.878 98.3533L140.865 98.527C145.667 99.708 150.521 100.668 155.392 101.475C160.648 102.339 165.931 103.025 171.226 103.577C176.836 104.158 182.464 104.593 188.095 104.918C194.015 105.257 199.936 105.474 205.86 105.604L206 105.609V105.878L205.865 105.882C194.4 106.39 182.94 107.002 171.501 107.94C160.006 108.878 148.533 110.142 137.134 111.926C132.686 122.195 128.492 132.576 124.712 143.106C120.85 153.874 117.425 164.793 114.572 175.865L114.541 176L114.27 175.939L114.301 175.805C116.682 164.468 118.639 153.057 120.125 141.569C120.785 136.48 121.353 131.378 121.837 126.268C122.288 121.496 122.672 116.715 123 111.935H122.947L95.5397 109.178C95.0329 110.602 94.5392 112.03 94.0455 113.459L118.312 115.899L117.634 124.405L90.3667 124.765C88.6583 130.301 87.0723 135.915 85.6305 141.621C87.5224 132.381 88.9991 123.771 90.1701 115.63L68.8837 124.622L29.9373 124.791L37.8672 97.8801L60.7396 88.0282L63.0247 80.1693L39.1561 90.0689H0ZM139.856 69.4535L142.045 69.7009L142.228 68.2681C142.63 65.1463 143.067 62.0331 143.539 58.9243C142.359 62.4499 141.127 65.9626 139.856 69.4535ZM141.534 73.9343C140.389 74.0255 139.235 74.121 138.086 74.2165C134.941 82.553 131.559 90.8027 128.011 98.9829L127.766 99.543L118.88 102.621L127.212 82.4271L105.934 82.5227C102.452 90.7853 99.1355 99.1566 96.0684 107.693L123.026 110.402H124.647L124.546 111.887C123.865 121.869 122.939 131.838 121.654 141.764C121.256 144.838 120.828 147.912 120.361 150.977C124.87 137.504 130.1 124.283 135.749 111.249L136.055 110.541L136.819 110.424C150.814 108.236 164.917 106.829 179.047 105.834C176.382 105.617 173.721 105.379 171.064 105.101C160.753 104.028 150.451 102.465 140.38 99.9902L139.24 99.708L139.34 98.2491C139.891 90.1297 140.599 82.019 141.534 73.9343ZM136.391 74.3598C126.936 75.1891 117.477 76.2573 108 77.6858C107.524 78.7843 107.052 79.8828 106.585 80.9856L129.518 80.8857L121.606 100.055L126.617 98.3186C130.051 90.4033 133.333 82.4228 136.391 74.3598ZM90.5196 113.107C90.7249 111.635 90.9172 110.176 91.1007 108.731L65.5107 106.16L64.6762 108.991L50.092 109.047L90.5196 113.107ZM91.2886 107.211L91.5769 104.827L76.5296 105.73L91.2886 107.211ZM91.7561 103.281C91.992 101.184 92.2104 99.1175 92.4158 97.0768L68.1584 97.181L65.9039 104.831L91.7561 103.281ZM92.5643 95.5441C92.9881 91.1153 93.3377 86.8038 93.6304 82.5748L88.8943 82.5965L88.3438 90.0689L60.0755 90.3121L60.1847 89.9343L39.143 99.0003L31.9995 123.25L68.5647 123.089L88.9292 114.488L45.9501 110.168L46.0768 107.528L63.5227 107.463L67.0006 95.6526L92.5643 95.5441ZM93.7353 81.0421C93.8139 79.8958 93.8882 78.7539 93.9581 77.6163H93.7615L35.5341 71.581L34.7127 74.4163L17.3629 74.4076L81.8949 81.0942L93.7353 81.0421ZM93.8445 114.983L91.4196 123.22L116.21 122.894L116.656 117.271L93.8445 114.983ZM35.8356 70.5563L38.1425 62.6236H68.1278L66.3103 68.876L35.8356 70.5563Z" fill="#F29774"/>
</svg>
