<svg width="439" height="181" viewBox="0 0 439 181" fill="none" xmlns="http://www.w3.org/2000/svg">
<path fill-rule="evenodd" clip-rule="evenodd" d="M0 114.633L9.58135 81.0191L60.1012 59.4714H128.042L118.46 84.4667L125.429 81.881C136.752 56.0238 146.333 28.4429 154.173 0C147.204 31.8905 144.591 57.7476 142.849 82.7429L150.688 84.4667L209.048 59.4714H250.857L183.788 87.9143L218.629 90.5L220.371 84.4667L278.73 59.4714H311.829L307.474 74.1238L342.315 59.4714H393.706L439 86.1905L429.419 114.633H357.123L360.607 102.567L366.704 81.881H402.417L396.319 102.567L376.286 114.633L379.77 102.567H360.607H310.087L312.7 93.0857L330.992 84.4667H304.861L295.28 114.633H256.954L260.438 102.567H250.857H226.468L253.47 89.6381L256.954 80.1572H267.407L262.181 97.3952L250.857 102.567L246.502 114.633H139.365L141.978 105.152L176.819 101.705L174.206 112.048L215.145 102.567L216.016 98.2571L236.05 96.5333L216.887 95.6714L217.758 91.3619L138.494 99.1191C127.171 124.976 116.718 152.557 109.75 181C116.718 149.11 119.331 123.252 120.202 99.1191L45.2936 91.3619L44.4226 94.8095H22.6468L114.105 104.29L113.234 114.633L76.6508 115.495L81.006 102.567L50.5198 114.633H0ZM46.1647 90.5L48.7778 80.1572H87.1032L85.3611 87.9143L46.1647 90.5Z" fill="#F29774"/>
</svg>
